<svg width="200" height="200" viewBox="0 0 200 200" fill="none" xmlns="http://www.w3.org/2000/svg">
<path d="M148.8 165.9V176.55H168C170.917 176.55 173.715 175.391 175.778 173.328C177.841 171.265 179 168.467 179 165.55V161.43C179.011 159.985 178.733 158.552 178.184 157.215C177.634 155.879 176.823 154.665 175.799 153.646C174.775 152.626 173.557 151.821 172.218 151.277C170.879 150.734 169.445 150.463 168 150.48H158.41V145.54H177.41V134.88H159.21C156.288 134.932 153.502 136.124 151.447 138.202C149.392 140.279 148.23 143.078 148.21 146V149.71C148.21 156.95 154.45 160.66 159.21 160.66C172.46 160.72 156.04 160.66 168.28 160.66V165.84L148.8 165.9ZM45.67 163.31C45.67 163.31 56 162.42 56 149.12C56 135.82 43.52 134.58 43.52 134.58H21V176.58H32.3V166.43L42.07 176.55H58.8L45.67 163.31ZM41.32 154.71H32.32V145.12H41.38C41.38 145.12 43.92 146.06 43.92 149.89C43.92 153.72 41.32 154.71 41.32 154.71ZM83.87 134.88H72.39C64.21 134.88 61.45 142.29 61.45 145.82V176.55H72.92V169.19H83.7V176.55H94.82V145.82C94.82 136.88 86.7 134.88 83.87 134.88ZM83.7 157.3H72.86V147.12C72.86 147.12 72.86 144.82 76.46 144.82H80.4C83.58 144.82 83.64 147.12 83.64 147.12V157.3H83.7Z" fill="#CB2026"/>
<path d="M112.01 134.88H100.06V176.55H112.01V134.88Z" fill="#CB2026"/>
<path d="M128.78 165.78V134.88H116.89V165.78V176.55H128.78H144.85V165.78H128.78Z" fill="#CB2026"/>
<path d="M25.8799 120.41H80.8799C80.8799 120.41 70.3999 72.42 105.22 53C112.82 49.3 136.99 35.51 176.55 64.77C177.81 63.72 178.99 62.89 178.99 62.89C178.99 62.89 142.77 26.73 102.44 30.77C82.1699 32.58 57.2299 51 42.5999 75.41C27.9699 99.82 25.8799 120.41 25.8799 120.41Z" fill="#CB2026"/>
<path d="M25.8799 120.41H80.8799C80.8799 120.41 70.3999 72.42 105.22 53C112.82 49.3 136.99 35.51 176.55 64.77C177.81 63.72 178.99 62.89 178.99 62.89C178.99 62.89 142.77 26.73 102.44 30.77C82.1699 32.58 57.2299 51 42.5999 75.41C27.9699 99.82 25.8799 120.41 25.8799 120.41Z" fill="#CB2026"/>
<path d="M25.8799 120.41H80.8799C80.8799 120.41 70.3999 72.4196 105.22 52.9996C112.82 49.2996 136.99 35.5096 176.55 64.7696C177.81 63.7196 178.99 62.8896 178.99 62.8896C178.99 62.8896 142.77 26.7296 102.44 30.7696C82.0999 32.5796 57.1599 50.9996 42.5299 75.4096C27.8999 99.8196 25.8799 120.41 25.8799 120.41ZM140.54 34.6696L140.82 29.9996C138.66 28.9477 136.394 28.1297 134.06 27.5596L133.78 32.1596C136.08 32.9196 138.31 33.7596 140.54 34.6696Z" fill="#CB2026"/>
<path d="M133.92 49.4302L133.64 53.8202C135.961 53.8927 138.27 54.1738 140.54 54.6602L140.82 50.3402C138.544 49.8742 136.239 49.5701 133.92 49.4302ZM108.15 27.7002H108.85L107.45 23.4502C105.217 23.4547 102.986 23.5949 100.77 23.8702L102.09 28.0002C104.104 27.7955 106.126 27.6953 108.15 27.7002ZM111.49 53.3302L113.1 58.1402C115.057 57.1774 117.082 56.3618 119.16 55.7002L117.62 51.1002C115.532 51.7145 113.485 52.4593 111.49 53.3302ZM79.8701 35.0002L76.7301 30.2002C74.9901 31.1002 73.1801 32.0802 71.3001 33.2002L74.5101 38.0802C76.3201 37.0002 78.0601 35.9202 79.8701 35.0002ZM94.1501 66.3602L97.4901 71.3602C98.7229 69.6041 100.097 67.9519 101.6 66.4202L98.4701 61.6802C96.9053 63.1202 95.4605 64.6854 94.1501 66.3602ZM84.0501 88.7902L89.6901 93.2502C89.9766 90.5015 90.4646 87.7775 91.1501 85.1002L86.1501 81.1002C85.2942 83.6184 84.5929 86.1865 84.0501 88.7902ZM53.5401 55.7002L48.5901 51.3802C46.7801 53.1202 45.0401 54.8702 43.4401 56.6102L48.8001 61.2002C50.2841 59.2863 51.8662 57.4505 53.5401 55.7002ZM32.5401 86.8402L24.5401 83.9102C23.2201 86.9102 21.7501 90.3902 21.0601 92.2702L29.0601 95.2002C29.9201 92.8302 31.3901 89.4202 32.5001 86.8402H32.5401ZM83.0001 106.48C83.0966 109.422 83.3772 112.354 83.8401 115.26L92.2001 118.26C91.4888 115.291 90.9314 112.287 90.5301 109.26L83.0001 106.48Z" fill="#CB2026"/>
</svg>
